<svg id="Capa_1" enable-background="new 0 0 512 512" height="512" viewBox="0 0 512 512" width="512" xmlns="http://www.w3.org/2000/svg"><g><g><path d="m345.905 441.87h-327.293v-434.37h246.48l80.813 80.813z" fill="#f4fbff"/></g><g><path d="m265.092 7.5h-22.224v82.833c0 11.158 9.045 20.203 20.203 20.203h51.518c5.579 0 10.102 4.523 10.102 10.102v89.155c0 2.266-1.854 4.119-4.12 4.119h-.042c-79.095 0-143.443 64.349-143.443 143.443 0 31.575 10.263 60.795 27.618 84.514h141.2v-353.556z" fill="#e4f6ff"/></g><g><path d="m265.092 7.5v80.813h80.813z" fill="#d3effb"/></g><g><path d="m50.938 131.75h262.642v202.033h-262.642z" fill="#9dc6fb"/></g><g><path d="m313.58 333.783v-119.7c-67.943 3.258-123.637 54.008-134.545 119.699h134.545z" fill="#80b4fb"/></g><g><path d="m313.58 236.807-63.64-63.64-70.712 79.803-37.376-45.458-90.914 102.027v24.244h262.642z" fill="#95d6a4"/></g><g><path d="m179.035 333.783h134.545v-96.976l-20.287-20.287c-58.505 11.293-104.458 58.244-114.258 117.263z" fill="#78c2a4"/></g><g><path d="m50.938 377.22h262.642v32.325h-262.642z" fill="#407093"/></g><g><path d="m186.917 409.545h126.663v-32.325h-135.111c1.564 11.24 4.428 22.069 8.448 32.325z" fill="#365e7d"/></g><g><g><path d="m385.94 434.888h60.61v36.366h-60.61z" fill="#2b4d66" transform="matrix(.707 -.707 .707 .707 -198.454 427.031)"/></g><g><path d="m493.389 504.5h-51.429l-25.715-25.715 25.715-25.714z" fill="#4a80aa"/></g><g><circle cx="320.53" cy="357.356" fill="#dd636e" r="121.22"/></g><g><path d="m393.836 260.815c15.483 20.358 24.679 45.757 24.679 73.307 0 66.948-54.272 121.22-121.22 121.22-27.55 0-52.948-9.197-73.307-24.679 22.141 29.113 57.143 47.913 96.54 47.913 66.948 0 121.22-54.272 121.22-121.22.001-39.398-18.799-74.4-47.912-96.541z" fill="#da4a54"/></g><g><circle cx="320.53" cy="357.356" fill="#e4f6ff" r="88.894"/></g><g><path d="m374.212 286.501c11.319 14.916 18.04 33.513 18.04 53.682 0 49.095-39.799 88.894-88.894 88.894-20.169 0-38.766-6.721-53.682-18.04 16.233 21.393 41.929 35.212 70.855 35.212 49.095 0 88.894-39.799 88.894-88.894-.001-28.925-13.82-54.621-35.213-70.854z" fill="#d3effb"/></g></g><g><path d="m498.693 499.196-46.126-46.125 3.268-3.268c2.929-2.93 2.929-7.678 0-10.607l-21.525-21.525c9.76-18.356 14.94-38.937 14.94-60.315 0-34.382-13.39-66.706-37.701-91.019-16.677-16.676-36.83-27.803-58.147-33.397v-144.63c0-1.989-.79-3.896-2.196-5.304l-80.811-80.81c-1.408-1.406-3.315-2.196-5.305-2.196h-246.48c-4.142 0-7.5 3.357-7.5 7.5v49.58c0 4.143 3.358 7.5 7.5 7.5s7.5-3.357 7.5-7.5v-42.08h231.482v73.313c0 4.143 3.357 7.5 7.5 7.5h73.309v134.126c-5.744-.799-11.531-1.211-17.32-1.235v-35.894c0-4.143-3.357-7.5-7.5-7.5s-7.5 3.357-7.5 7.5v25.89l-50.838-50.837c-1.462-1.462-3.48-2.278-5.529-2.192-2.067.062-4.016.975-5.387 2.522l-64.885 73.227-31.796-38.672c-1.392-1.692-3.454-2.691-5.645-2.734-2.195-.062-4.291.873-5.749 2.509l-77.812 87.323v-150.596h247.64v18.56c0 4.143 3.357 7.5 7.5 7.5s7.5-3.357 7.5-7.5v-26.06c0-4.143-3.357-7.5-7.5-7.5h-262.639c-4.142 0-7.5 3.357-7.5 7.5v202.03c0 4.143 3.358 7.5 7.5 7.5h141.935c-1.178 9.437-1.32 18.979-.415 28.439h-141.52c-4.142 0-7.5 3.357-7.5 7.5v32.32c0 4.143 3.358 7.5 7.5 7.5h155.532c3.133 5.996 6.776 11.792 10.917 17.33h-191.28v-342.289c0-4.143-3.358-7.5-7.5-7.5s-7.5 3.357-7.5 7.5v349.79c0 4.143 3.358 7.5 7.5 7.5h211.922c24.964 24.424 57.479 36.646 89.998 36.646 20.747 0 41.493-4.975 60.278-14.917l21.562 21.562c1.465 1.464 3.385 2.196 5.304 2.196s3.839-.732 5.304-2.196l3.268-3.268 20.411 20.411c1.465 1.464 3.385 2.196 5.304 2.196s3.839-.732 5.304-2.196c2.929-2.93 2.929-7.678 0-10.607l-20.411-20.411 15.107-15.107 46.126 46.125c1.465 1.464 3.385 2.196 5.304 2.196s3.839-.732 5.304-2.196c2.927-2.93 2.927-7.678-.002-10.608zm-226.101-473.588 55.206 55.205h-55.206zm-214.151 300.672v-13.888l83.183-93.35 31.812 38.691c1.394 1.695 3.46 2.694 5.655 2.735 2.21.052 4.296-.883 5.752-2.525l65.428-73.84 46.75 46.75c-24.748 4.562-48.408 16.384-67.508 35.483-17.144 17.144-28.428 37.962-33.859 59.943h-137.213zm0 75.76v-17.32h136.351c1.266 5.862 2.948 11.649 5.038 17.32zm181.677 35.728c-44.339-44.34-44.339-116.484 0-160.823 22.17-22.17 51.291-33.255 80.412-33.255s58.242 11.085 80.411 33.255c21.479 21.479 33.309 50.036 33.309 80.411 0 30.376-11.829 58.934-33.309 80.412-44.338 44.339-116.483 44.339-160.823 0zm153.875 25.301c6.175-4.295 12.054-9.193 17.555-14.694 5.465-5.465 10.373-11.338 14.706-17.545l13.67 13.669-32.251 32.251z"/><path d="m409.633 361.32c-4.101-.519-7.865 2.377-8.393 6.486-2.302 17.968-10.309 34.255-23.154 47.1-15.375 15.376-35.815 23.844-57.557 23.844-21.74 0-42.181-8.468-57.556-23.844-15.371-15.37-23.836-35.81-23.836-57.552 0-21.741 8.465-42.181 23.836-57.551 15.375-15.376 35.815-23.844 57.556-23.844s42.182 8.468 57.555 23.841c10.055 10.063 17.319 22.588 21.007 36.218 1.081 3.998 5.199 6.366 9.198 5.28 3.998-1.081 6.362-5.199 5.28-9.198-4.37-16.153-12.971-30.988-24.876-42.904-18.209-18.208-42.416-28.236-68.164-28.236-25.747 0-49.954 10.028-68.163 28.236-18.204 18.204-28.229 42.41-28.229 68.158 0 25.749 10.025 49.955 28.229 68.159 18.792 18.792 43.478 28.188 68.164 28.188 24.685 0 49.37-9.396 68.163-28.188 15.214-15.215 24.697-34.51 27.426-55.801.527-4.108-2.377-7.865-6.486-8.392z"/></g></g></svg>